<?xml version="1.0" encoding="UTF-8" standalone="no"?>
<!-- Generator: Adobe Illustrator 18.1.1, SVG Export Plug-In . SVG Version: 6.00 Build 0)  -->

<svg
   xmlns:dc="http://purl.org/dc/elements/1.1/"
   xmlns:cc="http://creativecommons.org/ns#"
   xmlns:rdf="http://www.w3.org/1999/02/22-rdf-syntax-ns#"
   xmlns:svg="http://www.w3.org/2000/svg"
   xmlns="http://www.w3.org/2000/svg"
   xmlns:sodipodi="http://sodipodi.sourceforge.net/DTD/sodipodi-0.dtd"
   xmlns:inkscape="http://www.inkscape.org/namespaces/inkscape"
   version="1.1"
   id="Layer_1"
   x="0px"
   y="0px"
   viewBox="0 0 199.99999 200"
   enable-background="new 0 0 200 200"
   xml:space="preserve"
   inkscape:version="0.92.3 (2405546, 2018-03-11)"
   sodipodi:docname="logo-mobile.svg"
   width="200"
   height="200"><metadata
     id="metadata13"><rdf:RDF><cc:Work
         rdf:about=""><dc:format>image/svg+xml</dc:format><dc:type
           rdf:resource="http://purl.org/dc/dcmitype/StillImage" /><dc:title></dc:title></cc:Work></rdf:RDF></metadata><defs
     id="defs11" /><sodipodi:namedview
     pagecolor="#ffffff"
     bordercolor="#666666"
     borderopacity="1"
     objecttolerance="10"
     gridtolerance="10"
     guidetolerance="10"
     inkscape:pageopacity="0"
     inkscape:pageshadow="2"
     inkscape:window-width="3098"
     inkscape:window-height="1689"
     id="namedview9"
     showgrid="false"
     fit-margin-top="0"
     fit-margin-left="0"
     fit-margin-right="0"
     fit-margin-bottom="0"
     inkscape:zoom="1.18"
     inkscape:cx="390.88305"
     inkscape:cy="124.19492"
     inkscape:window-x="102"
     inkscape:window-y="55"
     inkscape:window-maximized="1"
     inkscape:current-layer="Layer_1"
     inkscape:pagecheckerboard="true" /><path
     style="fill:#ffffff;fill-opacity:1;stroke-width:1.90114069"
     inkscape:connector-curvature="0"
     id="path7"
     d="m 74.71483,100 c 0,-13.11787 10.646388,-23.76426 23.764259,-23.76426 13.117871,0 23.764261,10.64639 23.764261,23.76426 0,13.11787 -10.64639,23.76426 -23.764261,23.76426 C 85.361218,123.95437 74.71483,113.11787 74.71483,100 Z M 98.479089,0 C 51.711028,0 12.54753,31.93916 1.5209141,75.28517 c 0,0.38023 -0.1901141,0.57034 -0.1901141,0.95057 0,2.6616 2.0912548,4.75285 4.7528517,4.75285 H 46.387834 c 1.901141,0 3.612168,-1.14068 4.372624,-2.85171 v 0 c 8.365019,-18.06083 26.425855,-30.60836 47.718631,-30.60836 28.897341,0 52.471481,23.57414 52.471481,52.47148 0,28.89734 -23.57414,52.47148 -52.471481,52.47148 -21.102662,0 -39.353612,-12.54753 -47.718631,-30.60836 v 0 c -0.760456,-1.71103 -2.471483,-2.85171 -4.372624,-2.85171 H 6.0836517 c -2.6615969,0 -4.7528517,2.09125 -4.7528517,4.75285 0,0.38023 0,0.57034 0.1901141,0.95057 C 12.54753,168.06084 51.711028,200 98.479089,200 153.80228,200 198.6692,155.13308 198.6692,99.80989 198.6692,44.67681 153.80228,0 98.479089,0 Z" /></svg>