<?xml version="1.0" encoding="UTF-8" standalone="no"?>
<!-- Generator: Adobe Illustrator 18.1.1, SVG Export Plug-In . SVG Version: 6.00 Build 0)  -->

<svg
   xmlns:dc="http://purl.org/dc/elements/1.1/"
   xmlns:cc="http://creativecommons.org/ns#"
   xmlns:rdf="http://www.w3.org/1999/02/22-rdf-syntax-ns#"
   xmlns:svg="http://www.w3.org/2000/svg"
   xmlns="http://www.w3.org/2000/svg"
   xmlns:sodipodi="http://sodipodi.sourceforge.net/DTD/sodipodi-0.dtd"
   xmlns:inkscape="http://www.inkscape.org/namespaces/inkscape"
   version="1.1"
   id="Layer_1"
   x="0px"
   y="0px"
   viewBox="0 0 954.85334 200"
   enable-background="new 0 0 200 200"
   xml:space="preserve"
   inkscape:version="0.92.3 (2405546, 2018-03-11)"
   sodipodi:docname="logo.svg"
   width="954.85339"
   height="200"><metadata
     id="metadata13"><rdf:RDF><cc:Work
         rdf:about=""><dc:format>image/svg+xml</dc:format><dc:type
           rdf:resource="http://purl.org/dc/dcmitype/StillImage" /><dc:title></dc:title></cc:Work></rdf:RDF></metadata><defs
     id="defs11" /><sodipodi:namedview
     pagecolor="#ffffff"
     bordercolor="#666666"
     borderopacity="1"
     objecttolerance="10"
     gridtolerance="10"
     guidetolerance="10"
     inkscape:pageopacity="0"
     inkscape:pageshadow="2"
     inkscape:window-width="3098"
     inkscape:window-height="1689"
     id="namedview9"
     showgrid="false"
     fit-margin-top="0"
     fit-margin-left="0"
     fit-margin-right="0"
     fit-margin-bottom="0"
     inkscape:zoom="1.668772"
     inkscape:cx="389.54142"
     inkscape:cy="0.31017408"
     inkscape:window-x="102"
     inkscape:window-y="55"
     inkscape:window-maximized="1"
     inkscape:current-layer="Layer_1"
     inkscape:pagecheckerboard="true"
     showguides="true"
     inkscape:guide-bbox="true"><sodipodi:guide
       position="254.67828,100.07359"
       orientation="0,1"
       id="guide1991"
       inkscape:locked="false" /></sodipodi:namedview><path
     style="fill:#ffffff;fill-opacity:1;stroke-width:1.90114069"
     inkscape:connector-curvature="0"
     id="path7"
     d="m 73.38403,100 c 0,-13.11787 10.646388,-23.76426 23.764259,-23.76426 13.117871,0 23.764261,10.64639 23.764261,23.76426 0,13.11787 -10.64639,23.76426 -23.764261,23.76426 C 84.030418,123.95437 73.38403,113.11787 73.38403,100 Z M 97.148289,0 C 50.380228,0 11.21673,31.93916 0.19011407,75.28517 0.19011407,75.6654 0,75.85551 0,76.23574 c 0,2.6616 2.0912548,4.75285 4.7528517,4.75285 H 45.057034 c 1.901141,0 3.612168,-1.14068 4.372624,-2.85171 v 0 c 8.365019,-18.06083 26.425855,-30.60836 47.718631,-30.60836 28.897341,0 52.471481,23.57414 52.471481,52.47148 0,28.89734 -23.57414,52.47148 -52.471481,52.47148 -21.102662,0 -39.353612,-12.54753 -47.718631,-30.60836 v 0 c -0.760456,-1.71103 -2.471483,-2.85171 -4.372624,-2.85171 H 4.7528517 C 2.0912548,119.01141 0,121.10266 0,123.76426 c 0,0.38023 0,0.57034 0.19011407,0.95057 C 11.21673,168.06084 50.380228,200 97.148289,200 152.47148,200 197.3384,155.13308 197.3384,99.80989 197.3384,44.67681 152.47148,0 97.148289,0 Z" /><g
     aria-label="Image Docs"
     transform="translate(250.42373,226.93945)"
     style="font-style:normal;font-variant:normal;font-weight:bold;font-stretch:normal;font-size:133.33332825px;line-height:1.25;font-family:Roboto;-inkscape-font-specification:'Roboto Bold';letter-spacing:0px;word-spacing:0px;fill:#ffffff;fill-opacity:1;stroke:none"
     id="flowRoot1964"><path
       d="M 30.927082,-79.09701 H 11.395833 v -94.79166 h 19.531249 z"
       style=""
       id="path1993" /><path
       d="m 65.367185,-149.53972 0.585938,7.87761 q 7.486979,-9.17969 20.247395,-9.17969 13.60677,0 18.684892,10.74219 7.42188,-10.74219 21.15886,-10.74219 11.45833,0 17.05729,6.70573 5.59896,6.64063 5.59896,20.05208 v 44.98698 h -18.88021 v -44.92187 q 0,-5.98959 -2.34375,-8.72396 -2.34375,-2.79948 -8.26823,-2.79948 -8.46354,0 -11.71875,8.07292 l 0.0651,48.37239 h -18.8151 v -44.85677 q 0,-6.11979 -2.408854,-8.85417 -2.408854,-2.73437 -8.203125,-2.73437 -8.007812,0 -11.588541,6.64062 v 49.80469 H 47.723957 v -70.44271 z"
       style=""
       id="path1995" /><path
       d="m 203.90884,-79.09701 q -1.30208,-2.539062 -1.88802,-6.315104 -6.83594,7.617188 -17.77344,7.617188 -10.35156,0 -17.18749,-5.989583 -6.77084,-5.989584 -6.77084,-15.104167 0,-11.197914 8.26823,-17.187494 8.33333,-5.98959 24.02344,-6.05469 h 8.65885 v -4.03646 q 0,-4.88281 -2.53906,-7.8125 -2.47396,-2.92969 -7.8776,-2.92969 -4.75261,0 -7.48698,2.27865 -2.66927,2.27864 -2.66927,6.25 h -18.81511 q 0,-6.11979 3.77604,-11.32813 3.77605,-5.20833 10.67709,-8.13802 6.90104,-2.99479 15.49479,-2.99479 13.02083,0 20.63802,6.57552 7.68229,6.51042 7.68229,18.35938 v 30.533849 q 0.0651,10.026042 2.79948,15.169271 v 1.10677 z m -15.55989,-13.085937 q 4.16666,0 7.68229,-1.822916 3.51562,-1.888021 5.20833,-5.013021 v -12.109376 h -7.03125 q -14.1276,0 -15.03906,9.76563 l -0.0651,1.10677 q 0,3.515622 2.47395,5.794268 2.47396,2.278645 6.77084,2.278645 z"
       style=""
       id="path1997" /><path
       d="m 231.96873,-114.8392 q 0,-16.21093 7.6823,-26.10677 7.74739,-9.89583 20.83333,-9.89583 11.58854,0 18.03385,7.94271 l 0.78125,-6.64063 h 17.05729 v 68.09896 q 0,9.244792 -4.23177,16.080729 -4.16666,6.835937 -11.78385,10.416666 -7.61719,3.580729 -17.83854,3.580729 -7.7474,0 -15.10417,-3.125 -7.35677,-3.059895 -11.13281,-7.942708 l 8.33333,-11.458333 q 7.03125,7.877604 17.05729,7.877604 7.48698,0 11.65365,-4.036458 4.16667,-3.971354 4.16667,-11.328124 v -3.776042 q -6.51042,7.356771 -17.1224,7.356771 -12.69531,0 -20.57292,-9.895833 -7.8125,-9.960937 -7.8125,-26.367191 z m 18.81511,1.36719 q 0,9.57031 3.84114,15.039064 3.84115,5.403645 10.54688,5.403645 8.59375,0 12.30469,-6.445312 v -29.622397 q -3.77605,-6.44531 -12.17448,-6.44531 -6.77084,0 -10.67709,5.53385 -3.84114,5.53386 -3.84114,16.53646 z"
       style=""
       id="path1999" /><path
       d="m 343.16665,-77.794926 q -15.49479,0 -25.26041,-9.505208 -9.70052,-9.505208 -9.70052,-25.325516 v -1.82292 q 0,-10.61198 4.10156,-18.94531 4.10156,-8.39844 11.58854,-12.89063 7.55209,-4.55729 17.1875,-4.55729 14.45313,0 22.72136,9.11458 8.33333,9.11459 8.33333,25.84636 v 7.68229 h -44.85677 q 0.91146,6.90104 5.46875,11.067707 4.62239,4.166666 11.65364,4.166666 10.8724,0 16.99219,-7.877603 l 9.24479,10.351562 q -4.23177,5.989583 -11.45833,9.374999 -7.22656,3.320313 -16.01563,3.320313 z m -2.14843,-57.812494 q -5.59896,0 -9.11459,3.77604 -3.45052,3.77604 -4.42708,10.80729 h 26.17188 v -1.4974 q -0.13021,-6.25 -3.38542,-9.63541 -3.25521,-3.45052 -9.24479,-3.45052 z"
       style=""
       id="path2001" /><path
       d="m 417.45051,-79.09701 v -94.79166 h 29.16667 q 12.5,0 22.33072,5.66406 9.89584,5.59896 15.42969,16.01562 5.53386,10.35157 5.53386,23.56771 v 4.36198 q 0,13.21615 -5.46875,23.5026 -5.40365,10.286462 -15.29948,15.950524 -9.89584,5.664062 -22.33073,5.729166 z m 19.53125,-78.97135 v 63.281247 h 9.4401 q 11.45834,0 17.51302,-7.486977 6.05469,-7.48698 6.1849,-21.41927 v -5.01302 q 0,-14.45313 -5.98958,-21.875 -5.98959,-7.48698 -17.51302,-7.48698 z"
       style=""
       id="path2003" /><path
       d="m 500.00259,-114.9694 q 0,-10.48177 4.03646,-18.6849 4.03646,-8.20312 11.58854,-12.69531 7.61719,-4.49219 17.64323,-4.49219 14.25781,0 23.24219,8.72396 9.04948,8.72396 10.09114,23.69792 l 0.13021,4.8177 q 0,16.21094 -9.04948,26.041669 -9.04948,9.765625 -24.28385,9.765625 -15.23437,0 -24.34896,-9.765625 -9.04948,-9.765625 -9.04948,-26.562499 z m 18.81511,1.36718 q 0,10.02604 3.77604,15.364586 3.77604,5.273437 10.80729,5.273437 6.83594,0 10.67708,-5.208333 3.84115,-5.27344 3.84115,-16.79687 0,-9.83073 -3.84115,-15.23438 -3.84114,-5.40364 -10.80729,-5.40364 -6.90104,0 -10.67708,5.40364 -3.77604,5.33854 -3.77604,16.60156 z"
       style=""
       id="path2005" /><path
       d="m 607.75,-92.964197 q 5.20833,0 8.46354,-2.864583 3.25521,-2.864583 3.38542,-7.61719 h 17.64322 q -0.0651,7.161461 -3.90624,13.151044 -3.84115,5.924479 -10.54688,9.244791 -6.64062,3.255209 -14.71354,3.255209 -15.10417,0 -23.82812,-9.570313 -8.72396,-9.635416 -8.72396,-26.562501 v -1.23698 q 0,-16.27604 8.65885,-25.97656 8.65886,-9.70052 23.76302,-9.70052 13.21615,0 21.15885,7.55208 8.00782,7.48698 8.13802,19.98698 h -17.64322 q -0.13021,-5.46875 -3.38542,-8.85416 -3.25521,-3.45052 -8.59375,-3.45052 -6.57552,0 -9.96094,4.8177 -3.32031,4.75261 -3.32031,15.4948 v 1.95312 q 0,10.8724 3.32031,15.624999 3.32032,4.752604 10.09115,4.752604 z"
       style=""
       id="path2007" /><path
       d="m 686.13541,-98.563155 q 0,-3.450525 -3.45052,-5.403645 -3.38541,-2.01823 -10.9375,-3.58073 -25.1302,-5.27344 -25.1302,-21.35417 0,-9.37499 7.74739,-15.62499 7.8125,-6.31511 20.37761,-6.31511 13.41145,0 21.41927,6.31511 8.07291,6.3151 8.07291,16.40624 h -18.8151 q 0,-4.03645 -2.60417,-6.64062 -2.60416,-2.66927 -8.13802,-2.66927 -4.7526,0 -7.35677,2.14844 -2.60417,2.14843 -2.60417,5.46875 0,3.125 2.92969,5.07812 2.99479,1.88802 10.02604,3.32031 7.03125,1.36719 11.84896,3.125 14.90886,5.46875 14.90886,18.945315 0,9.635417 -8.26823,15.625 -8.26823,5.924479 -21.35417,5.924479 -8.85417,0 -15.75521,-3.125 -6.83593,-3.190104 -10.74218,-8.658854 -3.90625,-5.533854 -3.90625,-11.91406 h 17.83854 q 0.26041,5.013019 3.71093,7.682289 3.45052,2.669271 9.2448,2.669271 5.40364,0 8.13802,-2.018229 2.79947,-2.083333 2.79947,-5.403646 z"
       style=""
       id="path2009" /></g></svg>